<svg width="30" height="30" viewBox="0 0 30 30" fill="none" xmlns="http://www.w3.org/2000/svg">
<path d="M20.6277 7.49902H16.8777C16.1874 7.49902 15.6277 8.05867 15.6277 8.74902V12.499H20.6277C20.7699 12.4959 20.9047 12.562 20.9892 12.6764C21.0737 12.7908 21.0975 12.939 21.0527 13.074L20.1277 15.824C20.0425 16.0764 19.8066 16.247 19.5402 16.249H15.6277V25.624C15.6277 25.9692 15.3479 26.249 15.0027 26.249H11.8777C11.5326 26.249 11.2527 25.9692 11.2527 25.624V16.249H9.37775C9.03257 16.249 8.75275 15.9691 8.75275 15.624V13.124C8.75275 12.7789 9.03257 12.499 9.37775 12.499H11.2527V8.74902C11.2527 5.9876 13.4914 3.74902 16.2527 3.74902H20.6277C20.9729 3.74902 21.2527 4.02885 21.2527 4.37402V6.87402C21.2527 7.2192 20.9729 7.49902 20.6277 7.49902Z" fill="white"/>
</svg>
