<svg width="30" height="30" viewBox="0 0 30 30" fill="none" xmlns="http://www.w3.org/2000/svg">
<path fill-rule="evenodd" clip-rule="evenodd" d="M19.9995 3.75024H9.99951C6.54774 3.75024 3.74951 6.54847 3.74951 10.0002V20.0002C3.74951 23.452 6.54774 26.2502 9.99951 26.2502H19.9995C23.4513 26.2502 26.2495 23.452 26.2495 20.0002V10.0002C26.2495 6.54847 23.4513 3.75024 19.9995 3.75024ZM24.062 20.0002C24.0551 22.241 22.2403 24.0559 19.9995 24.0627H9.99951C7.7587 24.0559 5.94387 22.241 5.93701 20.0002V10.0002C5.94387 7.75943 7.7587 5.94461 9.99951 5.93774H19.9995C22.2403 5.94461 24.0551 7.75943 24.062 10.0002V20.0002ZM20.937 10.3127C21.6274 10.3127 22.187 9.75309 22.187 9.06274C22.187 8.37239 21.6274 7.81274 20.937 7.81274C20.2466 7.81274 19.687 8.37239 19.687 9.06274C19.687 9.75309 20.2466 10.3127 20.937 10.3127ZM14.9995 9.37524C11.8929 9.37524 9.37451 11.8936 9.37451 15.0002C9.37451 18.1069 11.8929 20.6252 14.9995 20.6252C18.1061 20.6252 20.6245 18.1069 20.6245 15.0002C20.6279 13.5074 20.0363 12.0747 18.9806 11.0191C17.925 9.96348 16.4924 9.37192 14.9995 9.37524ZM11.562 15.0002C11.562 16.8987 13.101 18.4377 14.9995 18.4377C16.898 18.4377 18.437 16.8987 18.437 15.0002C18.437 13.1017 16.898 11.5627 14.9995 11.5627C13.101 11.5627 11.562 13.1017 11.562 15.0002Z" fill="white"/>
</svg>
