<svg width="156" height="31" viewBox="0 0 156 31" fill="none" xmlns="http://www.w3.org/2000/svg">
<path d="M143.272 30.5551C141.508 30.5551 139.923 30.1481 138.517 29.3341C137.111 28.5077 135.995 27.3361 135.169 25.8191C134.355 24.2897 133.948 22.4767 133.948 20.3801C133.948 18.8014 134.182 17.3892 134.651 16.1436C135.119 14.8856 135.773 13.8187 136.612 12.9431C137.463 12.0551 138.455 11.3767 139.59 10.9081C140.725 10.4394 141.952 10.2051 143.272 10.2051C144.974 10.2051 146.447 10.5874 147.693 11.3521C148.951 12.1044 149.808 13.1281 150.265 14.4231L149.266 16.0141V10.7601H155.519V30.0001H149.266V24.7461L150.265 26.3371C149.808 27.6321 148.951 28.6619 147.693 29.4266C146.447 30.1789 144.974 30.5551 143.272 30.5551ZM144.641 24.2651C145.294 24.2651 145.886 24.1109 146.417 23.8026C146.959 23.4819 147.391 23.0317 147.712 22.4521C148.032 21.8724 148.193 21.1817 148.193 20.3801C148.193 19.5784 148.032 18.8877 147.712 18.3081C147.391 17.7284 146.959 17.2844 146.417 16.9761C145.886 16.6554 145.294 16.4951 144.641 16.4951C143.987 16.4951 143.389 16.6554 142.846 16.9761C142.316 17.2844 141.89 17.7284 141.57 18.3081C141.249 18.8877 141.089 19.5784 141.089 20.3801C141.089 21.1817 141.249 21.8724 141.57 22.4521C141.89 23.0317 142.316 23.4819 142.846 23.8026C143.389 24.1109 143.987 24.2651 144.641 24.2651Z" fill="white"/>
<path d="M110.061 30V10.76H117.461V17.383H123.381V10.76H130.781V30H123.381V23.155H117.461V30H110.061Z" fill="white"/>
<path d="M84.8046 30V10.76H91.8346V19.788L98.7536 10.76H105.451V30H98.4206V20.824L91.5016 30H84.8046Z" fill="white"/>
<path d="M49.6113 30V10.76H56.6413V24.228H61.3773V10.76H68.4073V24.228H73.1433V10.76H80.1733V30H49.6113Z" fill="white"/>
<path d="M24.3544 30V10.76H31.3844V19.788L38.3034 10.76H45.0004V30H37.9704V20.824L31.0514 30H24.3544Z" fill="white"/>
<path d="M6.32741 30V16.532H0L6.32741 10.76H13.7274L20 16.532H13.7274V30L10 26.5L6.32741 30Z" fill="white"/>
<path d="M9.94334 2.79736C8.39839 2.79736 7.14594 3.98202 7.14594 5.44334C7.14594 6.90467 8.39839 8.08932 9.94334 8.08932C11.4883 8.08932 12.7407 6.90467 12.7407 5.44334C12.7407 3.98202 11.4883 2.79736 9.94334 2.79736Z" fill="white"/>
</svg>
