<svg width="30" height="30" viewBox="0 0 30 30" fill="none" xmlns="http://www.w3.org/2000/svg">
<path d="M26.2171 8.39651C25.6366 9.17091 24.9348 9.84642 24.1389 10.397C24.1389 10.5992 24.1389 10.8015 24.1389 11.0151C24.1453 14.6886 22.6779 18.2111 20.0658 20.7929C17.4536 23.3746 13.9151 24.7996 10.2436 24.7484C8.12106 24.7555 6.02566 24.2709 4.1216 23.3324C4.01892 23.2875 3.95271 23.186 3.9531 23.0739V22.9503C3.9531 22.7889 4.08386 22.6581 4.24516 22.6581C6.3316 22.5893 8.34359 21.8659 9.99649 20.5903C8.10798 20.5521 6.40881 19.4334 5.62682 17.7131C5.58733 17.6193 5.59962 17.5114 5.65928 17.4288C5.71893 17.3461 5.81732 17.3006 5.91888 17.3086C6.49285 17.3663 7.07255 17.3129 7.62632 17.1513C5.54156 16.7185 3.97508 14.9878 3.7509 12.8694C3.74293 12.7678 3.78847 12.6694 3.87107 12.6096C3.95366 12.55 4.06137 12.5376 4.1553 12.5773C4.71475 12.8241 5.31868 12.9541 5.93012 12.9593C4.10337 11.7603 3.31433 9.47982 4.00926 7.40753C4.081 7.20617 4.25333 7.05741 4.46295 7.01593C4.67255 6.97445 4.88852 7.04636 5.03147 7.20525C7.49656 9.82882 10.8836 11.3922 14.4784 11.5657C14.3864 11.1983 14.3412 10.8207 14.3437 10.4419C14.3773 8.45566 15.6063 6.68627 17.4553 5.9621C19.3042 5.23793 21.4072 5.7023 22.7798 7.13781C23.7153 6.95957 24.6198 6.64532 25.4644 6.20502C25.5263 6.1664 25.6048 6.1664 25.6667 6.20502C25.7053 6.26692 25.7053 6.34541 25.6667 6.40731C25.2576 7.34416 24.5664 8.12991 23.6897 8.655C24.4574 8.56596 25.2117 8.38485 25.9363 8.11556C25.9973 8.07403 26.0774 8.07403 26.1384 8.11556C26.1896 8.13893 26.2278 8.18365 26.2429 8.23778C26.2581 8.29192 26.2486 8.34998 26.2171 8.39651Z" fill="white"/>
</svg>
